<?xml version="1.0" encoding="UTF-8"?>
<svg width="1200" height="400" viewBox="0 0 1200 400" xmlns="http://www.w3.org/2000/svg">
  <defs>
    <filter id="neon-glow" x="-20%" y="-20%" width="140%" height="140%">
      <feGaussianBlur stdDeviation="2" result="blur"/>
      <feComposite in="SourceGraphic" in2="blur" operator="over"/>
    </filter>
  </defs>
  <g filter="url(#neon-glow)" fill="#00f7ff" opacity="0.8">
    <!-- Modern buildings -->
    <path d="M0,400 L0,200 L50,200 L50,400 Z"/>
    <path d="M100,400 L100,150 L150,150 L150,400 Z"/>
    <path d="M200,400 L200,180 L250,180 L250,400 Z"/>
    <!-- Traditional Japanese buildings -->
    <path d="M300,400 L300,100 L350,100 L350,120 L330,120 L330,400 Z"/>
    <path d="M400,400 L400,80 L450,80 L450,100 L420,100 L420,400 Z"/>
    <!-- More modern buildings -->
    <path d="M500,400 L500,220 L550,220 L550,400 Z"/>
    <path d="M600,400 L600,160 L650,160 L650,400 Z"/>
    <!-- Traditional temple -->
    <path d="M700,400 L700,50 L750,50 L750,70 L730,70 L730,90 L770,90 L770,400 Z"/>
    <!-- More buildings -->
    <path d="M800,400 L800,180 L850,180 L850,400 Z"/>
    <path d="M900,400 L900,140 L950,140 L950,400 Z"/>
    <path d="M1000,400 L1000,200 L1050,200 L1050,400 Z"/>
    <path d="M1100,400 L1100,160 L1150,160 L1150,400 Z"/>
  </g>
</svg> 