<?xml version="1.0" encoding="UTF-8"?>
<svg width="1200" height="600" viewBox="0 0 1200 600" xmlns="http://www.w3.org/2000/svg">
  <defs>
    <!-- Neon glow filter -->
    <filter id="neonGlow" x="-20%" y="-20%" width="140%" height="140%">
      <feGaussianBlur stdDeviation="4" result="blur" />
      <feComposite in="SourceGraphic" in2="blur" operator="over" />
    </filter>
    
    <!-- Star twinkle animation -->
    <filter id="starGlow" x="-50%" y="-50%" width="200%" height="200%">
      <feGaussianBlur stdDeviation="1" result="blur" />
      <feComposite in="SourceGraphic" in2="blur" operator="over" />
    </filter>
    
    <!-- Gradient for background -->
    <linearGradient id="skyGradient" x1="0%" y1="0%" x2="0%" y2="100%">
      <stop offset="0%" style="stop-color:#060c23;stop-opacity:1" />
      <stop offset="100%" style="stop-color:#000000;stop-opacity:1" />
    </linearGradient>
  </defs>

  <!-- Background -->
  <rect width="100%" height="100%" fill="url(#skyGradient)" />

  <!-- Stars -->
  <g filter="url(#starGlow)">
    <!-- First layer of stars (larger, brighter) -->
    <circle cx="100" cy="50" r="1" fill="#ffffff" opacity="0.8">
      <animate attributeName="opacity" values="0.8;0.4;0.8" dur="3s" repeatCount="indefinite" />
    </circle>
    <circle cx="300" cy="80" r="1.2" fill="#ffffff" opacity="0.9">
      <animate attributeName="opacity" values="0.9;0.5;0.9" dur="4s" repeatCount="indefinite" />
    </circle>
    <circle cx="500" cy="40" r="1" fill="#ffffff" opacity="0.8">
      <animate attributeName="opacity" values="0.8;0.4;0.8" dur="3.5s" repeatCount="indefinite" />
    </circle>
    <circle cx="700" cy="70" r="1.2" fill="#ffffff" opacity="0.9">
      <animate attributeName="opacity" values="0.9;0.5;0.9" dur="4.5s" repeatCount="indefinite" />
    </circle>
    <circle cx="900" cy="30" r="1" fill="#ffffff" opacity="0.8">
      <animate attributeName="opacity" values="0.8;0.4;0.8" dur="3.2s" repeatCount="indefinite" />
    </circle>
    <circle cx="1100" cy="60" r="1.2" fill="#ffffff" opacity="0.9">
      <animate attributeName="opacity" values="0.9;0.5;0.9" dur="4.2s" repeatCount="indefinite" />
    </circle>
    
    <!-- Second layer of stars (smaller, more numerous) -->
    <g opacity="0.6">
      <circle cx="150" cy="120" r="0.5" fill="#ffffff" />
      <circle cx="250" cy="90" r="0.5" fill="#ffffff" />
      <circle cx="350" cy="130" r="0.5" fill="#ffffff" />
      <circle cx="450" cy="70" r="0.5" fill="#ffffff" />
      <circle cx="550" cy="110" r="0.5" fill="#ffffff" />
      <circle cx="650" cy="50" r="0.5" fill="#ffffff" />
      <circle cx="750" cy="100" r="0.5" fill="#ffffff" />
      <circle cx="850" cy="80" r="0.5" fill="#ffffff" />
      <circle cx="950" cy="120" r="0.5" fill="#ffffff" />
      <circle cx="1050" cy="90" r="0.5" fill="#ffffff" />
    </g>
  </g>

  <!-- Buildings -->
  <g filter="url(#neonGlow)">
    <!-- Left side buildings -->
    <rect x="50" y="200" width="80" height="400" fill="#ff00c8" opacity="0.15" />
    <rect x="60" y="220" width="60" height="360" fill="#ff00c8" opacity="0.25" />
    
    <rect x="150" y="150" width="100" height="450" fill="#00f7ff" opacity="0.15" />
    <rect x="170" y="170" width="60" height="410" fill="#00f7ff" opacity="0.25" />
    
    <rect x="280" y="250" width="90" height="350" fill="#ff00c8" opacity="0.15" />
    <rect x="300" y="270" width="50" height="310" fill="#ff00c8" opacity="0.25" />
    
    <!-- Center buildings -->
    <rect x="400" y="100" width="120" height="500" fill="#00f7ff" opacity="0.15" />
    <rect x="430" y="130" width="60" height="450" fill="#00f7ff" opacity="0.25" />
    
    <rect x="550" y="180" width="100" height="420" fill="#ff00c8" opacity="0.15" />
    <rect x="580" y="200" width="40" height="380" fill="#ff00c8" opacity="0.25" />
    
    <!-- Right side buildings -->
    <rect x="680" y="220" width="90" height="380" fill="#00f7ff" opacity="0.15" />
    <rect x="710" y="240" width="30" height="340" fill="#00f7ff" opacity="0.25" />
    
    <rect x="800" y="150" width="110" height="450" fill="#ff00c8" opacity="0.15" />
    <rect x="830" y="170" width="50" height="410" fill="#ff00c8" opacity="0.25" />
    
    <rect x="940" y="200" width="80" height="400" fill="#00f7ff" opacity="0.15" />
    <rect x="960" y="220" width="40" height="360" fill="#00f7ff" opacity="0.25" />
  </g>

  <!-- Windows with enhanced neon effect -->
  <g filter="url(#neonGlow)">
    <!-- Left buildings windows -->
    <g transform="translate(70, 240)">
      <rect x="0" y="0" width="30" height="30" fill="#ff00c8" opacity="0.3">
        <animate attributeName="opacity" values="0.3;0.5;0.3" dur="4s" repeatCount="indefinite" />
      </rect>
      <rect x="40" y="0" width="30" height="30" fill="#00f7ff" opacity="0.3">
        <animate attributeName="opacity" values="0.3;0.5;0.3" dur="3s" repeatCount="indefinite" />
      </rect>
      <rect x="0" y="40" width="30" height="30" fill="#00f7ff" opacity="0.3">
        <animate attributeName="opacity" values="0.3;0.5;0.3" dur="3.5s" repeatCount="indefinite" />
      </rect>
      <rect x="40" y="40" width="30" height="30" fill="#ff00c8" opacity="0.3">
        <animate attributeName="opacity" values="0.3;0.5;0.3" dur="4.5s" repeatCount="indefinite" />
      </rect>
    </g>
    
    <!-- Center buildings windows -->
    <g transform="translate(440, 150)">
      <rect x="0" y="0" width="40" height="40" fill="#ff00c8" opacity="0.3">
        <animate attributeName="opacity" values="0.3;0.5;0.3" dur="4.2s" repeatCount="indefinite" />
      </rect>
      <rect x="50" y="0" width="40" height="40" fill="#00f7ff" opacity="0.3">
        <animate attributeName="opacity" values="0.3;0.5;0.3" dur="3.8s" repeatCount="indefinite" />
      </rect>
      <rect x="0" y="50" width="40" height="40" fill="#00f7ff" opacity="0.3">
        <animate attributeName="opacity" values="0.3;0.5;0.3" dur="4.5s" repeatCount="indefinite" />
      </rect>
      <rect x="50" y="50" width="40" height="40" fill="#ff00c8" opacity="0.3">
        <animate attributeName="opacity" values="0.3;0.5;0.3" dur="3.2s" repeatCount="indefinite" />
      </rect>
    </g>
    
    <!-- Right buildings windows -->
    <g transform="translate(840, 190)">
      <rect x="0" y="0" width="35" height="35" fill="#ff00c8" opacity="0.3">
        <animate attributeName="opacity" values="0.3;0.5;0.3" dur="3.7s" repeatCount="indefinite" />
      </rect>
      <rect x="45" y="0" width="35" height="35" fill="#00f7ff" opacity="0.3">
        <animate attributeName="opacity" values="0.3;0.5;0.3" dur="4.1s" repeatCount="indefinite" />
      </rect>
      <rect x="0" y="45" width="35" height="35" fill="#00f7ff" opacity="0.3">
        <animate attributeName="opacity" values="0.3;0.5;0.3" dur="3.9s" repeatCount="indefinite" />
      </rect>
      <rect x="45" y="45" width="35" height="35" fill="#ff00c8" opacity="0.3">
        <animate attributeName="opacity" values="0.3;0.5;0.3" dur="4.3s" repeatCount="indefinite" />
      </rect>
    </g>
  </g>

  <!-- Ground line with enhanced glow -->
  <line x1="0" y1="600" x2="1200" y2="600" stroke="#00f7ff" stroke-width="2" opacity="0.4" filter="url(#neonGlow)" />
</svg> 