<?xml version="1.0" encoding="UTF-8"?>
<svg width="800" height="400" viewBox="0 0 800 400" xmlns="http://www.w3.org/2000/svg">
  <!-- Tokyo Tower -->
  <path d="M400 50 L420 350 L380 350 Z" fill="#333"/>
  <rect x="395" y="200" width="10" height="150" fill="#333"/>
  
  <!-- Buildings -->
  <path d="M100 200 L150 200 L150 350 L100 350 Z" fill="#222"/>
  <path d="M180 150 L220 150 L220 350 L180 350 Z" fill="#222"/>
  <path d="M250 180 L290 180 L290 350 L250 350 Z" fill="#222"/>
  <path d="M320 120 L360 120 L360 350 L320 350 Z" fill="#222"/>
  <path d="M450 160 L490 160 L490 350 L450 350 Z" fill="#222"/>
  <path d="M520 140 L560 140 L560 350 L520 350 Z" fill="#222"/>
  <path d="M590 170 L630 170 L630 350 L590 350 Z" fill="#222"/>
  <path d="M660 130 L700 130 L700 350 L660 350 Z" fill="#222"/>
  
  <!-- Windows -->
  <g fill="#444">
    <!-- Building 1 windows -->
    <rect x="110" y="220" width="10" height="10" rx="2"/>
    <rect x="130" y="220" width="10" height="10" rx="2"/>
    <rect x="110" y="250" width="10" height="10" rx="2"/>
    <rect x="130" y="250" width="10" height="10" rx="2"/>
    <rect x="110" y="280" width="10" height="10" rx="2"/>
    <rect x="130" y="280" width="10" height="10" rx="2"/>
    
    <!-- Building 2 windows -->
    <rect x="190" y="170" width="10" height="10" rx="2"/>
    <rect x="210" y="170" width="10" height="10" rx="2"/>
    <rect x="190" y="200" width="10" height="10" rx="2"/>
    <rect x="210" y="200" width="10" height="10" rx="2"/>
    <rect x="190" y="230" width="10" height="10" rx="2"/>
    <rect x="210" y="230" width="10" height="10" rx="2"/>
  </g>
</svg> 